<svg fill="none" height="24" width="24" xmlns="http://www.w3.org/2000/svg"><path d="M12 15.75a3.75 3.75 0 1 0 0-7.5 3.75 3.75 0 0 0 0 7.5Z" stroke-width="1.25" stroke-miterlimit="10" stroke="#4C4C4C"></path><path d="M16.125 3.375h-8.25a4.5 4.5 0 0 0-4.5 4.5v8.25a4.5 4.5 0 0 0 4.5 4.5h8.25a4.5 4.5 0 0 0 4.5-4.5v-8.25a4.5 4.5 0 0 0-4.5-4.5Z" stroke-width="1.25" stroke-linecap="round" stroke="#4C4C4C"></path><path d="M17.375 7.125a.5.5 0 1 1-1 0 .5.5 0 0 1 1 0Z" stroke-width="1.25" stroke="#4C4C4C" fill="#4C4C4C"></path></svg>