<svg fill="none" height="24" width="24" xmlns="http://www.w3.org/2000/svg"><path d="m15 12-4.5-3v6l4.5-3Z" stroke-width="1.25" stroke-linejoin="round" stroke-linecap="round" stroke="#4C4C4C"></path><path d="M2.25 12c0 2.794.29 4.425.506 5.269a1.51 1.51 0 0 0 .9 1.022C6.796 19.49 12 19.462 12 19.462s5.203.029 8.344-1.171a1.51 1.51 0 0 0 .9-1.022c.215-.844.506-2.475.506-5.269s-.29-4.425-.506-5.269a1.51 1.51 0 0 0-.9-1.022C17.204 4.51 12 4.538 12 4.538s-5.203-.029-8.344 1.171a1.51 1.51 0 0 0-.9 1.022C2.541 7.575 2.25 9.206 2.25 12Z" stroke-width="1.25" stroke-linejoin="round" stroke-linecap="round" stroke="#4C4C4C"></path></svg>